<?xml version="1.0" standalone="no"?>
<!DOCTYPE svg PUBLIC "-//W3C//DTD SVG 20010904//EN"
 "http://www.w3.org/TR/2001/REC-SVG-20010904/DTD/svg10.dtd">
<svg version="1.0" xmlns="http://www.w3.org/2000/svg"
 width="500.000000pt" height="500.000000pt" viewBox="0 0 500.000000 500.000000"
 preserveAspectRatio="xMidYMid meet">
<metadata>
Created by potrace 1.16, written by Peter Selinger 2001-2019
</metadata>
<g transform="translate(0.000000,500.000000) scale(0.100000,-0.100000)"
fill="#000000" stroke="none">
<path d="M1670 3592 c-45 -22 -70 -67 -77 -139 -6 -54 -7 -56 -15 -27 -17 65
-134 89 -428 89 -214 -1 -311 -15 -352 -52 -23 -21 -23 -75 0 -96 21 -19 159
-57 208 -57 l33 0 -1 -277 c0 -362 22 -563 68 -614 12 -13 31 -19 61 -19 82 0
89 11 117 190 25 155 46 415 46 571 l0 146 73 13 c88 15 148 36 162 54 8 10
11 -97 11 -352 1 -362 10 -505 37 -562 26 -55 117 -87 167 -60 35 19 44 53 50
192 3 76 9 140 12 143 10 11 63 -22 95 -58 16 -19 44 -59 61 -89 44 -76 97
-97 162 -63 56 29 64 77 25 158 -13 29 -42 69 -63 90 l-40 39 46 41 c86 79
129 221 119 387 -6 111 -36 190 -92 246 -64 63 -183 93 -250 62 -23 -10 -28
-10 -36 5 -15 26 -83 57 -126 57 -21 0 -54 -8 -73 -18z m175 -44 c29 -34 32
-35 55 -22 42 23 129 17 188 -12 96 -48 142 -149 142 -310 0 -185 -50 -304
-157 -375 -22 -15 -22 -15 27 -63 118 -116 118 -236 -1 -236 -40 0 -66 24
-102 95 -22 43 -82 102 -129 126 -22 11 -42 19 -44 16 -2 -2 -7 -66 -10 -143
-6 -161 -9 -177 -30 -198 -21 -22 -82 -20 -121 4 -42 25 -51 62 -63 252 -19
314 -6 779 25 838 8 15 27 38 42 50 24 18 37 21 87 18 54 -4 63 -8 91 -40z
m-390 -68 c80 -15 107 -34 103 -68 -4 -36 -50 -58 -158 -75 l-85 -13 -6 -224
c-9 -305 -47 -627 -79 -665 -15 -18 -66 -26 -93 -16 -44 17 -61 98 -78 361 -6
100 -7 253 -4 357 l7 181 -48 7 c-92 13 -178 36 -196 52 -10 9 -18 29 -18 45
0 33 15 42 110 63 78 18 449 14 545 -5z"/>
<path d="M1682 3567 c-58 -32 -68 -91 -78 -422 -6 -229 7 -561 25 -639 13 -53
40 -77 93 -83 33 -4 47 -1 58 12 12 14 21 114 29 328 3 60 158 -48 206 -144
26 -52 56 -79 85 -79 35 0 80 36 80 63 -1 42 -40 108 -96 161 l-56 54 30 16
c51 26 109 102 134 174 19 55 23 88 23 187 0 177 -34 258 -129 307 -56 30
-164 32 -195 4 -12 -11 -22 -17 -24 -15 -1 2 -9 16 -16 31 -25 50 -116 74
-169 45z m132 -28 c14 -11 26 -26 26 -34 0 -7 7 -18 15 -25 12 -10 20 -8 41 9
35 28 120 29 173 2 92 -47 131 -134 131 -291 0 -167 -44 -278 -132 -335 -26
-16 -49 -36 -53 -44 -4 -9 13 -30 45 -59 86 -75 125 -168 81 -192 -47 -25 -66
-14 -119 69 -29 47 -68 92 -93 110 -49 36 -115 59 -129 45 -5 -5 -13 -81 -16
-169 -4 -88 -11 -166 -17 -172 -12 -17 -67 -16 -89 1 -10 7 -22 25 -28 40 -19
52 -33 366 -27 636 7 312 16 376 52 408 35 29 102 30 139 1z"/>
<path d="M1902 3460 c-25 -11 -46 -29 -52 -44 -18 -48 -52 -533 -39 -558 11
-21 67 -33 115 -25 110 18 176 159 175 372 0 102 -10 153 -40 202 -39 64 -95
82 -159 53z m108 -20 c79 -56 101 -279 44 -451 -20 -63 -76 -126 -122 -139
-48 -12 -112 3 -112 28 2 75 39 523 45 532 12 20 69 50 93 50 13 0 36 -9 52
-20z"/>
<path d="M1913 3434 c-17 -9 -34 -23 -38 -32 -4 -10 -15 -132 -25 -272 -14
-195 -16 -256 -7 -262 7 -4 30 -8 52 -8 93 0 153 90 174 260 11 88 2 195 -23
253 -27 64 -79 88 -133 61z m91 -29 c88 -95 58 -433 -45 -508 -23 -17 -93 -27
-104 -15 -3 2 4 118 14 258 17 240 20 255 41 272 31 25 67 23 94 -7z"/>
<path d="M935 3476 c-108 -21 -127 -31 -123 -64 4 -32 34 -44 172 -68 50 -9
91 -17 91 -17 1 -1 -2 -78 -7 -172 -12 -270 13 -629 49 -698 12 -25 19 -28 56
-25 55 4 61 17 86 193 29 201 42 385 40 558 l-1 151 83 14 c105 18 149 32 163
54 31 50 -86 77 -349 83 -136 3 -210 1 -260 -9z m445 -16 c209 -26 198 -64
-27 -100 l-73 -12 0 -181 c0 -100 -5 -234 -11 -297 -11 -124 -46 -380 -55
-404 -7 -19 -43 -27 -65 -16 -44 24 -62 198 -63 589 l-1 305 -101 18 c-121 21
-154 32 -154 53 0 18 33 32 104 44 74 12 347 13 446 1z"/>
<path d="M3268 3565 c-55 -14 -152 -54 -145 -61 2 -2 27 5 56 16 29 11 50 16
47 11 -4 -5 2 -12 11 -14 11 -3 6 -5 -12 -7 -16 -1 -24 -4 -17 -7 21 -8 2 -23
-31 -23 -71 0 -102 -17 -147 -82 l-43 -61 39 26 c21 15 46 27 56 27 23 0 42
-59 29 -94 -14 -35 -3 -60 53 -120 24 -28 43 -54 40 -58 -3 -4 2 -8 10 -8 9 0
16 -4 16 -9 0 -5 15 -13 33 -16 41 -9 99 -39 116 -59 8 -9 24 -16 36 -16 33 0
38 -26 13 -69 l-22 -39 19 -43 c11 -24 33 -57 49 -72 l29 -28 -18 -111 c-15
-93 -15 -112 -4 -119 18 -12 42 -11 35 0 -11 16 11 56 38 70 14 8 26 20 26 28
0 7 5 13 11 13 14 0 149 122 149 136 0 5 11 25 25 44 14 19 25 39 25 45 0 6
-25 22 -55 34 -40 17 -55 28 -55 42 0 12 -11 24 -27 30 -16 6 -37 18 -48 28
-33 30 -87 38 -172 25 -40 -6 -42 -5 -45 23 -2 20 -9 29 -26 31 -18 3 -21 8
-16 28 7 27 -7 32 -26 9 -18 -22 -39 -18 -51 9 -16 34 3 63 52 78 39 11 43 10
59 -10 24 -29 32 -28 18 3 -9 20 -8 28 6 44 10 11 15 25 11 30 -3 6 -2 11 4
11 5 0 12 8 16 19 3 11 19 22 38 26 18 4 26 9 20 12 -24 9 -13 23 13 17 l25
-7 -23 25 c-23 25 -53 43 -120 72 -21 9 -38 23 -38 32 0 8 5 14 11 12 6 -2 10
-8 10 -13 0 -10 36 -34 52 -35 13 0 7 28 -11 51 -11 12 -30 24 -43 26 -26 4
-46 19 -37 29 8 7 118 -45 118 -56 0 -10 61 -70 71 -70 4 0 9 17 11 37 5 42
-12 63 -69 85 -18 7 -33 15 -33 19 0 4 15 10 33 12 17 2 -6 4 -53 5 -47 0
-111 -6 -142 -13z"/>
<path d="M2475 3451 c-88 -41 -153 -163 -195 -372 -24 -119 -29 -311 -11 -402
19 -89 84 -122 161 -82 34 18 38 29 43 143 4 97 10 103 82 100 l50 -3 2 -105
c1 -94 3 -106 23 -122 27 -22 42 -22 80 -3 46 24 54 66 54 285 1 275 -29 426
-102 511 -58 68 -115 83 -187 50z m132 -21 c37 -22 74 -77 96 -141 34 -99 42
-174 42 -396 0 -209 -1 -223 -21 -250 -25 -33 -65 -41 -88 -18 -14 14 -15 30
-10 95 10 112 4 127 -50 135 -26 4 -59 2 -80 -5 -36 -12 -36 -12 -37 -73 -1
-34 0 -76 1 -92 5 -99 -144 -124 -169 -28 -50 196 10 571 113 706 64 84 136
108 203 67z"/>
<path d="M2485 3426 c-119 -52 -222 -410 -194 -676 11 -113 26 -140 75 -140
65 0 74 12 74 93 0 115 8 144 41 158 34 14 122 7 144 -11 12 -10 15 -35 15
-116 0 -96 1 -103 21 -109 15 -5 28 -1 41 13 28 27 42 168 34 338 -12 264 -62
412 -152 450 -41 17 -60 17 -99 0z m111 -25 c40 -24 79 -102 101 -201 25 -110
26 -521 1 -546 -9 -9 -23 -14 -31 -11 -12 4 -14 22 -10 94 4 58 1 97 -6 111
-23 44 -153 53 -201 14 -18 -15 -21 -30 -23 -116 -3 -90 -5 -101 -25 -114 -18
-12 -28 -13 -48 -4 -32 15 -41 41 -49 148 -17 222 62 527 160 613 42 37 84 40
131 12z"/>
<path d="M2515 3326 c-34 -34 -64 -143 -73 -271 -12 -158 -14 -155 107 -155
89 0 101 2 111 19 23 43 5 284 -27 363 -14 36 -54 68 -83 68 -6 0 -22 -11 -35
-24z m84 -22 c33 -42 42 -89 48 -241 l6 -143 -102 0 c-90 0 -101 2 -101 18 0
58 23 245 35 288 17 60 49 104 75 104 10 0 28 -12 39 -26z"/>
<path d="M2531 3301 c-32 -32 -54 -141 -64 -308 l-3 -63 88 0 88 0 0 63 c0 90
-18 233 -34 272 -20 47 -50 61 -75 36z m56 -32 c15 -32 33 -164 33 -250 l0
-69 -70 0 -71 0 5 48 c3 26 8 76 11 112 7 79 22 137 41 168 18 28 35 25 51 -9z"/>
<path d="M3862 3320 c-7 -12 -8 -21 -2 -25 15 -9 12 -25 -4 -25 -19 0 -27 -47
-10 -54 20 -8 17 -19 -15 -60 -34 -42 -50 -118 -29 -141 7 -8 19 -21 25 -29
10 -11 20 -13 45 -6 20 6 36 6 44 -1 13 -10 12 -84 -1 -174 l-8 -50 23 23 c33
35 56 200 41 301 -7 47 -17 79 -26 84 -8 4 -15 16 -15 25 0 15 2 15 10 2 29
-45 -14 64 -47 117 -18 30 -20 31 -31 13z"/>
<path d="M2922 2829 c-12 -11 -22 -27 -22 -37 0 -28 38 -82 58 -82 10 0 33
-15 51 -34 18 -19 39 -32 47 -29 22 8 27 59 9 90 -50 87 -65 107 -65 89 0 -17
-2 -18 -17 -4 -32 27 -40 28 -61 7z"/>
<path d="M1569 2410 c-41 -12 -79 -41 -85 -64 -6 -25 46 -278 78 -380 35 -111
112 -176 209 -176 14 0 51 5 82 11 53 11 56 13 76 58 29 69 90 275 103 350 14
83 5 133 -32 174 -25 29 -34 32 -84 32 -36 0 -60 -5 -70 -15 -7 -8 -28 -87
-46 -175 -17 -88 -33 -162 -35 -164 -6 -6 -10 11 -34 145 -11 67 -25 133 -30
147 -17 45 -81 72 -132 57z m74 -21 c12 -6 29 -19 35 -30 12 -19 45 -176 57
-274 9 -64 14 -85 24 -85 10 0 24 53 62 239 16 80 35 148 42 153 6 4 30 8 53
8 47 0 89 -31 100 -75 16 -63 -29 -271 -93 -432 -22 -56 -29 -64 -61 -73 -52
-14 -137 -12 -176 4 -73 30 -113 122 -162 373 -31 156 -30 163 31 189 37 16
57 17 88 3z"/>
<path d="M2735 2414 c-145 -35 -139 -25 -144 -241 -3 -192 8 -279 41 -326 38
-53 125 -73 167 -39 17 13 24 33 29 87 l7 69 45 -68 c24 -38 58 -77 75 -87 41
-26 115 -25 148 1 49 38 41 88 -27 179 l-25 34 28 33 c90 102 55 263 -72 328
-49 25 -70 29 -154 32 -54 2 -107 1 -118 -2z m255 -38 c79 -41 120 -105 120
-186 0 -60 -17 -97 -61 -134 l-31 -26 32 -36 c17 -20 41 -56 53 -80 18 -38 19
-47 7 -68 -18 -35 -70 -51 -115 -36 -39 13 -76 52 -125 133 -48 80 -60 75 -60
-22 0 -94 -11 -111 -72 -111 -51 0 -101 46 -118 109 -15 58 -10 425 7 442 41
41 293 51 363 15z"/>
<path d="M3345 2407 c-91 -30 -147 -99 -147 -182 0 -99 66 -160 202 -187 47
-9 66 -18 68 -30 6 -30 -42 -32 -126 -6 -86 28 -121 24 -149 -18 -20 -31 -21
-86 -1 -116 43 -66 228 -100 350 -64 82 24 148 106 148 186 0 95 -82 172 -215
200 -69 15 -87 26 -65 41 22 14 101 2 132 -21 35 -26 51 -25 83 3 58 50 37
144 -41 182 -49 24 -182 30 -239 12z m193 -13 c18 -3 48 -19 67 -36 45 -39 49
-92 10 -128 -25 -23 -27 -23 -54 -7 -71 42 -181 40 -181 -3 0 -24 8 -28 77
-41 171 -32 251 -140 194 -265 -35 -76 -99 -106 -231 -107 -177 -1 -278 84
-204 172 30 36 46 38 110 11 78 -34 164 -26 164 16 0 25 -30 42 -87 49 -127
16 -204 94 -186 188 24 128 134 180 321 151z"/>
<path d="M2128 2403 c-23 -6 -31 -102 -26 -328 5 -262 15 -275 215 -275 65 0
135 5 155 10 66 19 97 97 66 165 -11 24 -14 25 -110 25 -59 0 -98 4 -98 10 0
6 27 10 61 10 93 0 128 26 129 95 0 62 -9 69 -107 81 l-88 11 80 2 c104 1 136
20 155 86 16 58 5 96 -30 106 -27 8 -374 9 -402 2z m418 -38 c10 -41 -5 -92
-33 -115 -21 -17 -40 -20 -114 -20 -87 0 -89 0 -89 -24 0 -23 3 -24 85 -27 49
-3 89 -9 96 -16 20 -20 14 -83 -9 -106 -16 -15 -38 -21 -96 -25 -72 -4 -76 -6
-76 -28 0 -23 2 -23 107 -26 l107 -3 9 -31 c11 -39 -6 -78 -45 -107 -24 -18
-43 -21 -155 -21 -141 0 -162 6 -193 57 -18 29 -20 52 -20 252 0 121 3 230 6
243 6 22 7 22 210 22 l204 0 6 -25z"/>
<path d="M3769 2403 c-25 -6 -29 -46 -29 -280 0 -239 6 -269 62 -303 28 -17
50 -20 155 -20 90 0 133 4 163 16 62 25 84 81 59 153 l-11 31 -99 0 c-59 0
-99 4 -99 10 0 6 29 10 66 10 59 0 68 3 95 29 21 21 29 39 28 63 -1 67 -8 72
-105 84 l-89 11 82 2 c72 1 85 4 112 27 56 47 62 151 10 165 -26 8 -374 9
-400 2z m414 -34 c15 -24 -1 -88 -28 -115 -22 -22 -33 -24 -115 -24 -89 0 -90
0 -90 -25 0 -24 2 -25 68 -26 101 -2 116 -8 120 -51 2 -21 -2 -46 -8 -57 -12
-24 -67 -41 -132 -41 -44 0 -48 -2 -48 -25 l0 -25 104 0 c114 0 116 -1 116
-65 0 -58 -33 -85 -120 -96 -78 -10 -213 -4 -242 12 -10 5 -26 24 -35 42 -16
28 -18 59 -16 265 1 128 5 237 8 243 4 6 82 8 207 7 171 -3 202 -5 211 -19z"/>
</g>
</svg>
